{"title":"Red (2010) TriAudio (Pt-br-alamo///Pt-br-delart///Eng)","uid":9318558,"size":1096032656,"categoryP":"video","categoryS":"hd___movies","magnet":"?xt=urn:btih:7d153872e59db22ae62fb445da8f1e44634a52eb&amp;dn=Red+%282010%29+TriAudio+%28Pt-br-alamo%2F%2F%2FPt-br-delart%2F%2F%2FEng%29&amp;tr=udp%3A%2F%2Ftracker.openbittorrent.com%3A80&amp;tr=udp%3A%2F%2Fopen.demonii.com%3A1337&amp;tr=udp%3A%2F%2Ftracker.coppersurfer.tk%3A6969&amp;tr=udp%3A%2F%2Fexodus.desync.com%3A6969","seeders":0,"leechers":0,"uploader":"marcobladece","files":2,"time":1386460988,"description":"RED2010 - TRI AUDIO\n\n\nFormat version                           : Version 4 / Version 2\nFile size                                : 1.02 GiB\nDuration                                 : 1h 51mn\nOverall bit rate                         : 1 312 Kbps\n\n\nVideo\nID                                       : 2\nFormat                                   : AVC\nFormat/Info                              : Advanced Video Codec\nFormat profile                           : &lt;a class=&quot;__cf_email__&quot; href=&quot;/cdn-cgi/l/email-protection&quot; data-cfemail=&quot;0e466769664e423a203e&quot;&gt;[email&amp;#160;protected]&lt;/a&gt;&lt;script data-cfhash='f9e31' type=&quot;text/javascript&quot;&gt;\n/* &lt;![CDATA[ */!function(){try{var t=&quot;currentScript&quot;in document?document.currentScript:function(){for(var t=document.getElementsByTagName(&quot;script&quot;),e=t.length;e--;)if(t[e].getAttribute(&quot;data-cfhash&quot;))return t[e]}();if(t&amp;&amp;t.previousSibling){var e,r,n,i,c=t.previousSibling,a=c.getAttribute(&quot;data-cfemail&quot;);if(a){for(e=&quot;&quot;,r=parseInt(a.substr(0,2),16),n=2;a.length-n;n+=2)i=parseInt(a.substr(n,2),16)^r,e+=String.fromCharCode(i);e=document.createTextNode(e),c.parentNode.replaceChild(e,c)}t.parentNode.removeChild(t);}}catch(u){}}()/* ]]&gt; */&lt;/script&gt;\nFormat settings, CABAC                   : Yes\nFormat settings, ReFrames                : 6 frames\nCodec ID                                 : V_MPEG4/ISO/AVC\nDuration                                 : 1h 51mn\nNominal bit rate                         : 787 Kbps\nWidth                                    : 1 280 pixels\nHeight                                   : 528 pixels\nDisplay aspect ratio                     : 2.40:1\nFrame rate mode                          : Constant\nFrame rate                               : 23.976 fps\n\n\nAudio #1\nID                                       : 1\nFormat                                   : MPEG Audio\nFormat version                           : Version 1\nFormat profile                           : Layer 3\nCodec ID                                 : A_MPEG/L3\nCodec ID/Hint                            : MP3\nDuration                                 : 1h 51mn\nBit rate mode                            : Constant\nBit rate                                 : 320 Kbps\nChannel(s)                               : 2 channels\nSampling rate                            : 44.1 KHz\nCompression mode                         : Lossy\nStream size                              : 255 MiB (24%)\nTitle                                    : pt-br\nLanguage                                 : Portuguese\nDefault                                  : No\nForced                                   : No\n\nAudio #2\nID                                       : 3\nFormat                                   : MPEG Audio\nFormat version                           : Version 1\nFormat profile                           : Layer 3\nMode                                     : Joint stereo\nMode extension                           : MS Stereo\nCodec ID                                 : A_MPEG/L3\nCodec ID/Hint                            : MP3\nDuration                                 : 1h 51mn\nBit rate mode                            : Constant\nBit rate                                 : 112 Kbps\nChannel(s)                               : 2 channels\nSampling rate                            : 44.1 KHz\nCompression mode                         : Lossy\nStream size                              : 89.0 MiB (9%)\nTitle                                    : pt-br\nWriting library                          : LAME3.98r\u0001Å“\nLanguage                                 : Portuguese\nDefault                                  : Yes\nForced                                   : No\n\nAudio #3\nID                                       : 5\nFormat                                   : AAC\nFormat/Info                              : Advanced Audio Codec\nFormat profile                           : LC\nCodec ID                                 : A_AAC\nDuration                                 : 1h 51mn\nChannel(s)                               : 2 channels\nChannel positions                        : Front: L R\nSampling rate                            : 48.0 KHz\nCompression mode                         : Lossy\nTitle                                    : ing\nLanguage                                 : English\nDefault                                  : No\nForced                                   : No\n\nText #1\nID                                       : 4\nFormat                                   : UTF-8\nCodec ID                                 : S_TEXT/UTF8\nCodec ID/Info                            : UTF-8 Plain Text\nTitle                                    : pt-br\nLanguage                                 : Portuguese\nDefault                                  : Yes\nForced                                   : No\n\nText #2\nID                                       : 6\nFormat                                   : UTF-8\nCodec ID                                 : S_TEXT/UTF8\nCodec ID/Info                            : UTF-8 Plain Text\nTitle                                    : ing\nLanguage                                 : English\nDefault                                  : No\nForced                                   : No","torrent":{"xt":"urn:btih:7d153872e59db22ae62fb445da8f1e44634a52eb","amp;dn":"Red+%282010%29+TriAudio+%28Pt-br-alamo%2F%2F%2FPt-br-delart%2F%2F%2FEng%29","amp;tr":["udp%3A%2F%2Ftracker.openbittorrent.com%3A80","udp%3A%2F%2Fopen.demonii.com%3A1337","udp%3A%2F%2Ftracker.coppersurfer.tk%3A6969","udp%3A%2F%2Fexodus.desync.com%3A6969"],"infoHash":"7d153872e59db22ae62fb445da8f1e44634a52eb","infoHashBuffer":{"type":"Buffer","data":[125,21,56,114,229,157,178,42,230,47,180,69,218,143,30,68,99,74,82,235]},"announce":[],"urlList":[]}}